<svg width="200" height="127" viewBox="0 0 200 127" fill="none" xmlns="http://www.w3.org/2000/svg">
<rect width="200" height="127" rx="8" fill="#F1F5F9"/>
<path d="M70.2046 47.9904C71.8217 46.9895 73.7777 48.6341 73.1028 50.4271L70.4504 57.473C70.0226 58.6095 70.683 59.8693 71.8538 60.1503L78.8598 61.8314C80.677 62.2675 80.9572 64.7673 79.2818 65.5965L72.2421 69.0807C71.2133 69.5899 70.8239 70.8726 71.3919 71.8814L75.1474 78.551C76.0561 80.1649 74.5073 82.0528 72.7734 81.4448L65.6075 78.9324C64.5237 78.5523 63.3497 79.1753 63.0442 80.2926L60.9536 87.9379C60.456 89.7574 57.9773 89.9376 57.2202 88.2092L54.3013 81.5461C53.8135 80.4326 52.4689 80.0067 51.4439 80.6411L45.0893 84.5744C43.4722 85.5753 41.5162 83.9308 42.1911 82.1377L44.8435 75.0919C45.2713 73.9554 44.6109 72.6955 43.4401 72.4146L36.4342 70.7335C34.6169 70.2974 34.3367 67.7976 36.0121 66.9684L43.0518 63.4841C44.0806 62.9749 44.47 61.6922 43.902 60.6835L40.1465 54.0139C39.2378 52.4 40.7866 50.5121 42.5205 51.12L49.6864 53.6325C50.7702 54.0125 51.9442 53.3895 52.2498 52.2722L54.3403 44.627C54.8379 42.8074 57.3167 42.6273 58.0738 44.3556L60.9926 51.0187C61.4804 52.1323 62.825 52.5581 63.85 51.9237L70.2046 47.9904Z" fill="#5F237B"/>
<path d="M154.205 47.9904C155.822 46.9895 157.778 48.6341 157.103 50.4271L154.45 57.473C154.023 58.6095 154.683 59.8693 155.854 60.1503L162.86 61.8314C164.677 62.2675 164.957 64.7673 163.282 65.5965L156.242 69.0807C155.213 69.5899 154.824 70.8726 155.392 71.8814L159.147 78.551C160.056 80.1649 158.507 82.0528 156.773 81.4448L149.608 78.9324C148.524 78.5523 147.35 79.1753 147.044 80.2926L144.954 87.9379C144.456 89.7574 141.977 89.9376 141.22 88.2092L138.301 81.5461C137.814 80.4326 136.469 80.0067 135.444 80.6411L129.089 84.5744C127.472 85.5753 125.516 83.9308 126.191 82.1377L128.844 75.0919C129.271 73.9554 128.611 72.6955 127.44 72.4146L120.434 70.7335C118.617 70.2974 118.337 67.7976 120.012 66.9684L127.052 63.4841C128.081 62.9749 128.47 61.6922 127.902 60.6835L124.147 54.0139C123.238 52.4 124.787 50.5121 126.521 51.12L133.686 53.6325C134.77 54.0125 135.944 53.3895 136.25 52.2722L138.34 44.627C138.838 42.8074 141.317 42.6273 142.074 44.3556L144.993 51.0187C145.48 52.1323 146.825 52.5581 147.85 51.9237L154.205 47.9904Z" fill="#FF9348"/>
</svg>
