<svg width="200" height="127" viewBox="0 0 200 127" fill="none" xmlns="http://www.w3.org/2000/svg">
<rect width="200" height="127" rx="8" fill="#F1F5F9"/>
<circle opacity="0.2" cx="25" cy="19" r="10" fill="#FF9348"/>
<circle opacity="0.2" cx="25" cy="49" r="10" fill="#FF9348"/>
<circle opacity="0.2" cx="25" cy="79" r="10" fill="#FF9348"/>
<circle opacity="0.2" cx="25" cy="109" r="10" fill="#FF9348"/>
<circle opacity="0.2" cx="55" cy="19" r="10" fill="#FF9348"/>
<circle opacity="0.2" cx="55" cy="49" r="10" fill="#FF9348"/>
<circle opacity="0.2" cx="55" cy="79" r="10" fill="#FF9348"/>
<circle opacity="0.2" cx="55" cy="109" r="10" fill="#FF9348"/>
<circle opacity="0.2" cx="85" cy="19" r="10" fill="#FF9348"/>
<circle opacity="0.2" cx="85" cy="109" r="10" fill="#FF9348"/>
<circle opacity="0.2" cx="115" cy="19" r="10" fill="#FF9348"/>
<circle opacity="0.2" cx="145" cy="19" r="10" fill="#FF9348"/>
<circle opacity="0.2" cx="175" cy="19" r="10" fill="#FF9348"/>
<circle opacity="0.2" cx="145" cy="49" r="10" fill="#FF9348"/>
<circle opacity="0.2" cx="175" cy="49" r="10" fill="#FF9348"/>
<circle opacity="0.2" cx="145" cy="79" r="10" fill="#FF9348"/>
<circle opacity="0.2" cx="175" cy="79" r="10" fill="#FF9348"/>
<circle opacity="0.2" cx="115" cy="109" r="10" fill="#FF9348"/>
<circle opacity="0.2" cx="145" cy="109" r="10" fill="#FF9348"/>
<circle opacity="0.2" cx="175" cy="109" r="10" fill="#FF9348"/>
<path fill-rule="evenodd" clip-rule="evenodd" d="M116.016 79.5882C111.682 82.9158 106.093 84.9173 100 84.9173C98.2697 84.9137 96.5879 84.7579 94.9545 84.45C88.0364 90.2707 81.7841 89.428 79.0364 87.7938C81.7864 85.2117 83.4273 81.5761 83.4273 79.1506L83.3886 79.1155L100.534 60.7918L116.016 79.5882ZM118.764 77.1302L103.07 58.0827L115.97 44.294C121.486 48.5076 125 54.855 125 61.9586C125 67.7739 122.645 73.0868 118.764 77.1302ZM112.8 42.2331L92.575 63.8493L79.8273 48.3941C84.3773 42.6977 91.7182 39 100 39C104.677 39 109.057 40.1803 112.8 42.2331ZM77.6886 51.5894C75.9705 54.7037 75 58.2258 75 61.9586C75 67.4984 77.1364 72.579 80.6955 76.5441L90.0364 66.5612L77.6909 51.5867L77.6886 51.5894Z" fill="#5F237B"/>
</svg>
