<svg width="200" height="127" viewBox="0 0 200 127" fill="none" xmlns="http://www.w3.org/2000/svg">
<rect width="200" height="127" rx="8" fill="#F1F5F9"/>
<path d="M64 53L68.29 60.0649L76.9904 60L72.58 67L76.9904 74L68.29 73.9351L64 81L59.71 73.9351L51.0096 74L55.42 67L51.0096 60L59.71 60.0649L64 53Z" fill="#D0193E"/>
<path d="M98 53L102.29 60.0649L110.99 60L106.58 67L110.99 74L102.29 73.9351L98 81L93.71 73.9351L85.0096 74L89.42 67L85.0096 60L93.71 60.0649L98 53Z" fill="#D0193E"/>
<path d="M132 52L137.434 61.0834L148.454 61L142.868 70L148.454 79L137.434 78.9166L132 88L126.566 78.9166L115.546 79L121.132 70L115.546 61L126.566 61.0834L132 52Z" fill="#D0193E"/>
<path d="M73.5 34L76.217 38.5417L81.7272 38.5L78.934 43L81.7272 47.5L76.217 47.4583L73.5 52L70.783 47.4583L65.2728 47.5L68.066 43L65.2728 38.5L70.783 38.5417L73.5 34Z" fill="#D0193E"/>
<path d="M107.5 34L110.217 38.5417L115.727 38.5L112.934 43L115.727 47.5L110.217 47.4583L107.5 52L104.783 47.4583L99.2728 47.5L102.066 43L99.2728 38.5L104.783 38.5417L107.5 34Z" fill="#D0193E"/>
<path d="M141.5 34L144.217 38.5417L149.727 38.5L146.934 43L149.727 47.5L144.217 47.4583L141.5 52L138.783 47.4583L133.273 47.5L136.066 43L133.273 38.5L138.783 38.5417L141.5 34Z" fill="#D0193E"/>
<path d="M51.5 34L54.217 38.5417L59.7272 38.5L56.934 43L59.7272 47.5L54.217 47.4583L51.5 52L48.783 47.4583L43.2728 47.5L46.066 43L43.2728 38.5L48.783 38.5417L51.5 34Z" fill="#D0193E"/>
<path d="M90.5 38L92.645 41.7848L96.9952 41.75L94.79 45.5L96.9952 49.25L92.645 49.2152L90.5 53L88.355 49.2152L84.0048 49.25L86.21 45.5L84.0048 41.75L88.355 41.7848L90.5 38Z" fill="#D0193E"/>
<path d="M124.5 38L126.645 41.7848L130.995 41.75L128.79 45.5L130.995 49.25L126.645 49.2152L124.5 53L122.355 49.2152L118.005 49.25L120.21 45.5L118.005 41.75L122.355 41.7848L124.5 38Z" fill="#D0193E"/>
<g clip-path="url(#clip0_1490_1827)">
<path opacity="0.2" d="M121.504 76C121.504 81.9674 123.874 87.6903 128.094 91.9099C132.314 96.1295 138.037 98.5 144.004 98.5C149.971 98.5 155.694 96.1295 159.914 91.9099C164.133 87.6903 166.504 81.9674 166.504 76C166.504 70.0326 164.133 64.3097 159.914 60.0901C155.694 55.8705 149.971 53.5 144.004 53.5C138.037 53.5 132.314 55.8705 128.094 60.0901C123.874 64.3097 121.504 70.0326 121.504 76Z" fill="#DFD3E5"/>
<path fill-rule="evenodd" clip-rule="evenodd" d="M126.003 76C126.003 71.2261 127.9 66.6477 131.276 63.2721C134.651 59.8964 139.23 58 144.003 58C148.777 58 153.356 59.8964 156.731 63.2721C160.107 66.6477 162.003 71.2261 162.003 76C162.003 80.7739 160.107 85.3523 156.731 88.7279C153.356 92.1036 148.777 94 144.003 94C139.23 94 134.651 92.1036 131.276 88.7279C127.9 85.3523 126.003 80.7739 126.003 76ZM144.003 49C139.754 48.9995 135.565 50.0019 131.776 51.9258C127.987 53.8497 124.706 56.6407 122.199 60.0718C119.692 63.5029 118.03 67.4773 117.349 71.6717C116.668 75.866 116.986 80.162 118.279 84.2101C119.571 88.2582 121.8 91.9442 124.785 94.9682C127.771 97.9923 131.427 100.269 135.459 101.613C139.49 102.958 143.781 103.331 147.984 102.704C152.187 102.077 156.182 100.467 159.645 98.005L172.322 110.681C173.171 111.501 174.307 111.955 175.487 111.945C176.667 111.934 177.796 111.461 178.63 110.627C179.464 109.792 179.938 108.664 179.948 107.484C179.958 106.304 179.505 105.167 178.685 104.319L166.013 91.6465C168.885 87.6071 170.59 82.8551 170.941 77.911C171.292 72.967 170.275 68.0218 168.002 63.6174C165.729 59.2129 162.287 55.5191 158.054 52.9408C153.821 50.3624 148.96 48.999 144.003 49Z" fill="#5F237B"/>
</g>
<defs>
<clipPath id="clip0_1490_1827">
<rect width="63" height="63" fill="white" transform="translate(117 49)"/>
</clipPath>
</defs>
</svg>
