<svg width="14" height="14" viewBox="0 0 14 14" fill="none" xmlns="http://www.w3.org/2000/svg">
<path d="M7.77734 5.44508V0H12.4446C12.8724 0 13.2386 0.152333 13.5433 0.456998C13.848 0.761663 14.0003 1.12791 14.0003 1.55574V5.44508H7.77734ZM9.33308 3.88934H12.4446V1.55574H9.33308V3.88934Z" fill="#FF9348"/>
<path d="M6.22295 14.0016H1.55574C1.12791 14.0016 0.761663 13.8493 0.456998 13.5446C0.152333 13.24 0 12.8737 0 12.4459V1.55574C0 1.12791 0.152333 0.761663 0.456998 0.456998C0.761663 0.152333 1.12791 0 1.55574 0H6.22295V14.0016Z" fill="#5F237B"/>
<path d="M7.77734 14.0018V7.00098H14.0003V12.4461C14.0003 12.8739 13.848 13.2401 13.5433 13.5448C13.2386 13.8495 12.8724 14.0018 12.4446 14.0018H7.77734ZM9.33308 12.4461H12.4446V8.55671H9.33308V12.4461Z" fill="#D0193E"/>
</svg>
