<svg width="32" height="32" viewBox="0 0 32 32" fill="none" xmlns="http://www.w3.org/2000/svg">
<path d="M0 15.8333C0 18.9649 0.928609 22.0261 2.6684 24.6299C4.40819 27.2336 6.88102 29.263 9.77418 30.4614C12.6673 31.6598 15.8509 31.9734 18.9223 31.3624C21.9936 30.7515 24.8149 29.2435 27.0292 27.0292C29.2435 24.8149 30.7515 21.9936 31.3624 18.9223C31.9734 15.8509 31.6598 12.6673 30.4614 9.77418C29.263 6.88102 27.2336 4.40819 24.6299 2.6684C22.0261 0.928609 18.9649 0 15.8333 0C13.7541 0 11.6952 0.409541 9.77418 1.20524C7.85319 2.00094 6.10774 3.16722 4.63748 4.63748C1.66815 7.6068 0 11.6341 0 15.8333ZM14.25 7.91667C14.25 7.49674 14.4168 7.09401 14.7137 6.79708C15.0107 6.50015 15.4134 6.33333 15.8333 6.33333C16.2533 6.33333 16.656 6.50015 16.9529 6.79708C17.2499 7.09401 17.4167 7.49674 17.4167 7.91667V14.9182L20.7385 16.8372C21.0992 17.0486 21.3616 17.3942 21.4685 17.7984C21.5753 18.2026 21.518 18.6327 21.3089 18.9948C21.0999 19.3569 20.7561 19.6216 20.3526 19.7311C19.9491 19.8407 19.5186 19.7862 19.1552 19.5795L15.0417 17.2045C14.801 17.0655 14.6011 16.8657 14.4621 16.625C14.3232 16.3843 14.25 16.1113 14.25 15.8333V7.91667Z" fill="#FF9348"/>
</svg>
