<svg width="15" height="16" viewBox="0 0 15 16" fill="none" xmlns="http://www.w3.org/2000/svg">
<path fill-rule="evenodd" clip-rule="evenodd" d="M8.25511 14.3985C8.07962 14.7002 7.80228 14.9293 7.47295 15.0448C7.14362 15.1603 6.78389 15.1546 6.45843 15.0286C6.13297 14.9026 5.86312 14.6646 5.69738 14.3575C5.53164 14.0504 5.48089 13.6942 5.55424 13.353L6.31074 9.81383H2.12449C1.79694 9.81381 1.47382 9.73807 1.18038 9.59252C0.88694 9.44697 0.631119 9.23556 0.432896 8.9748C0.234673 8.71403 0.0994148 8.41097 0.0376863 8.08929C-0.0240421 7.7676 -0.0105696 7.436 0.0770512 7.12039L1.01099 3.76076C1.28227 2.78315 1.89433 1.93484 2.73653 1.36915C3.57873 0.80346 4.59552 0.557712 5.60311 0.676326L11.0176 1.31383L11.5489 8.75133L8.25511 14.3985ZM12.8781 8.27639C12.8836 8.38211 12.9102 8.48567 12.9562 8.58101C13.0022 8.67635 13.0668 8.76157 13.1461 8.83167C13.2255 8.90178 13.318 8.95538 13.4182 8.98934C13.5185 9.0233 13.6245 9.03693 13.7301 9.02945C13.8358 9.02197 13.9388 8.99352 14.0333 8.94576C14.1278 8.898 14.2118 8.8319 14.2805 8.7513C14.3491 8.67071 14.401 8.57724 14.4331 8.47636C14.4653 8.37548 14.477 8.26921 14.4676 8.16376L13.9363 0.726263C13.9177 0.518261 13.8183 0.325855 13.6593 0.190441C13.5003 0.055027 13.2946 -0.0125732 13.0863 0.00218678C12.878 0.0169468 12.6838 0.112885 12.5455 0.269362C12.4072 0.425838 12.3358 0.630348 12.3468 0.838889L12.8781 8.27639Z" fill="#1E1E2F"/>
</svg>
