<svg width="200" height="127" viewBox="0 0 200 127" fill="none" xmlns="http://www.w3.org/2000/svg">
<rect width="200" height="127" rx="8" fill="#F1F5F9"/>
<circle cx="13.5" cy="19.5" r="8.5" fill="#5F237B"/>
<path d="M179.942 19.4076C179.973 14.929 184.313 11.4294 188.252 11.1697C190.958 10.9913 198.629 14.3462 196.716 21.1653C195.411 25.8137 191.704 27.6206 188.59 27.5609C185.475 27.5012 179.903 25.0531 179.942 19.4076Z" fill="#FF9348"/>
<path d="M92.055 109.322C92.0856 104.889 96.1269 101.42 99.794 101.159C102.314 100.979 109.453 104.291 107.669 111.043C106.453 115.645 103.001 117.438 100.102 117.382C97.2023 117.327 92.0163 114.91 92.055 109.322Z" fill="#FF9348"/>
<path d="M46.1063 49.9277C46.1429 44.6394 50.964 40.5013 55.3387 40.1894C58.3445 39.9751 66.8613 43.9262 64.7331 51.9806C63.2824 57.471 59.1648 59.6096 55.7059 59.5432C52.2469 59.4769 46.0602 56.5938 46.1063 49.9277Z" fill="#FF9348"/>
<path d="M11.5 40L13.931 44.0371L18.8612 44L16.362 48L18.8612 52L13.931 51.9629L11.5 56L9.069 51.9629L4.13878 52L6.638 48L4.13878 44L9.069 44.0371L11.5 40Z" fill="#D0193E"/>
<path d="M143.5 70L145.931 74.0371L150.861 74L148.362 78L150.861 82L145.931 81.9629L143.5 86L141.069 81.9629L136.139 82L138.638 78L136.139 74L141.069 74.0371L143.5 70Z" fill="#FF9348"/>
<path d="M100.5 40L102.931 44.0371L107.861 44L105.362 48L107.861 52L102.931 51.9629L100.5 56L98.069 51.9629L93.1388 52L95.638 48L93.1388 44L98.069 44.0371L100.5 40Z" fill="#5F237B"/>
<path d="M143.5 101L145.931 105.037L150.861 105L148.362 109L150.861 113L145.931 112.963L143.5 117L141.069 112.963L136.139 113L138.638 109L136.139 105L141.069 105.037L143.5 101Z" fill="#D0193E"/>
<path d="M100.5 10L103.503 14.794L109.593 14.75L106.506 19.5L109.593 24.25L103.503 24.206L100.5 29L97.497 24.206L91.4067 24.25L94.494 19.5L91.4067 14.75L97.497 14.794L100.5 10Z" fill="#E1D4FF"/>
<path d="M56 71L58.288 74.7848L62.9282 74.75L60.576 78.5L62.9282 82.25L58.288 82.2152L56 86L53.712 82.2152L49.0718 82.25L51.424 78.5L49.0718 74.75L53.712 74.7848L56 71Z" fill="#D0193E"/>
<path d="M55.5 9L67.1913 25.5H43.8087L55.5 9Z" fill="#201E1C"/>
<path d="M3.28464 102.416L19.3544 99.8852L11.9332 116.195L3.28464 102.416Z" fill="#201E1C"/>
<path d="M187.5 43L195.727 54.25H179.273L187.5 43Z" fill="#E1D4FF"/>
<path d="M101 86L109.66 74H92.3397L101 86Z" fill="#E1D4FF"/>
<rect x="6" y="71" width="15" height="14" fill="#FF9348"/>
<rect x="48" y="100" width="17" height="16" fill="#5F237B"/>
<rect x="180" y="102" width="15" height="14" fill="#201E1C"/>
<rect x="137" y="41" width="15" height="14" fill="#201E1C"/>
<ellipse cx="9.24794" cy="5.69985" rx="9.24794" ry="5.69985" transform="matrix(0.670716 0.741714 -0.733462 0.67973 143.361 8)" fill="#D0193E"/>
<ellipse cx="9.24794" cy="5.69985" rx="9.24794" ry="5.69985" transform="matrix(-0.670716 0.741714 0.733462 0.67973 189.406 67)" fill="#5F237B"/>
</svg>
