<svg width="24" height="24" viewBox="0 0 24 24" fill="none" xmlns="http://www.w3.org/2000/svg">
<path d="M13.332 9.33423V0H21.3328C22.0662 0 22.694 0.261136 23.2163 0.783409C23.7386 1.30568 23.9997 1.93352 23.9997 2.66692V9.33423H13.332ZM15.999 6.66731H21.3328V2.66692H15.999V6.66731Z" fill="#FF9348"/>
<path d="M10.6677 24.0023H2.66692C1.93352 24.0023 1.30568 23.7412 0.783409 23.2189C0.261136 22.6966 0 22.0688 0 21.3354V2.66692C0 1.93352 0.261136 1.30568 0.783409 0.783409C1.30568 0.261136 1.93352 0 2.66692 0H10.6677V24.0023Z" fill="#5F237B"/>
<path d="M13.332 24.0026V12.0015H23.9997V21.3357C23.9997 22.0691 23.7386 22.6969 23.2163 23.2192C22.694 23.7415 22.0662 24.0026 21.3328 24.0026H13.332ZM15.999 21.3357H21.3328V14.6684L22.5 22.501L15.999 21.3357Z" fill="#D0193E"/>
</svg>
