<svg width="18" height="19" viewBox="0 0 18 19" fill="none" xmlns="http://www.w3.org/2000/svg">
<path d="M10.002 6.99962V0H16.0017C16.5516 0 17.0224 0.195823 17.4141 0.587468C17.8057 0.979113 18.0016 1.44992 18.0016 1.99989V6.99962H10.002ZM12.0019 4.99973H16.0017V1.99989H12.0019V4.99973Z" fill="#FF9348"/>
<path d="M7.99956 17.9994H1.99989C1.44992 17.9994 0.979113 17.8036 0.587468 17.4119C0.195823 17.0203 0 16.5495 0 15.9995V2.00026C0 1.45029 0.195823 0.97948 0.587468 0.587834C0.979113 0.196189 1.44992 0.000366211 1.99989 0.000366211H7.99956V17.9994Z" fill="#5F237B"/>
<path d="M10.002 18.4997V9.50018H18.0016V16.4998C18.0016 17.0498 17.8057 17.5206 17.4141 17.9122C17.0224 18.3039 16.5516 18.4997 16.0017 18.4997H10.002ZM12.0019 16.4998H16.0017V11.5001H12.0019V16.4998Z" fill="#D0193E"/>
</svg>
