<svg width="15" height="16" viewBox="0 0 15 16" fill="none" xmlns="http://www.w3.org/2000/svg">
<path fill-rule="evenodd" clip-rule="evenodd" d="M6.21559 0.728928C6.39109 0.427269 6.66842 0.198099 6.99776 0.0826101C7.32709 -0.0328789 7.68681 -0.0271128 8.01227 0.0988721C8.33774 0.224857 8.60759 0.462798 8.77332 0.769927C8.93906 1.07706 8.98982 1.43323 8.91646 1.77443L8.15996 5.31362H12.3462C12.6738 5.31363 12.9969 5.38938 13.2903 5.53492C13.5838 5.68047 13.8396 5.89188 14.0378 6.15264C14.236 6.41341 14.3713 6.71647 14.433 7.03815C14.4947 7.35984 14.4813 7.69144 14.3937 8.00705L13.4597 11.3667C13.1884 12.3443 12.5764 13.1926 11.7342 13.7583C10.892 14.324 9.87518 14.5697 8.86759 14.4511L3.45309 13.8136L2.92184 6.37612L6.21559 0.728928ZM1.59265 6.85105C1.5871 6.74533 1.56053 6.64177 1.5145 6.54643C1.46847 6.45109 1.40391 6.36588 1.32458 6.29577C1.24525 6.22566 1.15275 6.17206 1.05247 6.1381C0.952196 6.10414 0.846158 6.09051 0.740553 6.09799C0.634948 6.10547 0.531893 6.13392 0.437406 6.18168C0.34292 6.22944 0.258898 6.29555 0.190247 6.37614C0.121596 6.45673 0.0696924 6.5502 0.0375688 6.65108C0.00544509 6.75196 -0.006255 6.85823 0.00315197 6.96368L0.534402 14.4012C0.552957 14.6092 0.652421 14.8016 0.811393 14.937C0.970365 15.0724 1.17614 15.14 1.38445 15.1253C1.59275 15.1105 1.78694 15.0146 1.92523 14.8581C2.06352 14.7016 2.13486 14.4971 2.1239 14.2886L1.59265 6.85105Z" fill="#1E1E2F"/>
</svg>
