<svg width="368" height="98" viewBox="0 0 368 98" fill="none" xmlns="http://www.w3.org/2000/svg">
<path d="M5.59321 43.0855C1.36229 37.2168 -2.02244 24.0873 18.286 18.5189C25.3831 16.6082 41.7885 14.6701 50.6325 22.2039C54.7269 19.0648 65.5362 13.6875 76.0179 17.2906C75.745 11.9678 77.4919 1.24042 86.6635 0.912861H98.9468C102.359 1.18582 108.61 3.04197 107.955 9.92062V18.5189C112.458 15.6528 123.431 11.3127 131.293 16.8812C136.206 16.1987 142.732 17.7004 145.352 25.2342C151.358 19.502 160.911 15.4075 175.651 25.2342C176.607 21.2762 185.176 14.5064 192.709 18.1095C192.3 11.5584 194.757 -1.21624 207.859 0.0939763C214.683 0.366672 227.839 4.35155 225.874 18.1095C228.467 17.0179 234.882 15.8993 239.795 20.1575C247.438 16.0631 263.952 12.0505 268.866 28.7558C270.503 24.1155 275.417 15.3261 281.968 17.2914C281.695 8.28364 303.807 -5.47429 315.681 11.3129C328.374 2.90591 361.693 0.229837 366.452 26.4623C370.125 46.7091 356.482 61.3571 345.57 67.8161C347.344 74.5858 343.922 96.9852 328.374 97.5425C312.405 98.1149 304.216 81.3277 306.673 67.8161C301.76 66.042 293.325 68.3078 293.98 53.8952C292.206 67.8163 287.429 94.0205 264.362 97.5425C255.218 98.0884 236.847 97.952 236.52 83.212C231.957 82.6905 223.484 80.4009 224.447 75.344C222.712 80.7624 214.708 87.9129 194.347 77.8892C190.662 82.3931 179.525 88.5348 164.458 77.0704C160.227 80.8918 148.571 86.4875 135.797 78.2987C131.156 81.1648 118.764 85.1773 106.317 78.2987C102.086 82.3931 91.2492 88.1253 81.7501 78.2987C76.9733 81.7107 64.6354 86.7332 53.4986 79.527C52.1338 82.1201 47.1113 85.7505 37.9397 79.527C20.0604 90.1718 -13.2395 72.157 5.59321 43.0855Z" fill="#F8F1E7"/>
<path d="M38.5782 69.2349C51.1754 76.9685 46.7533 62.4955 46.7054 62.3606C44.7553 56.8611 45.8925 43.17 46.7049 37.0119C47.3551 33.9185 45.8922 31.4263 45.0795 30.5668C32.0759 17.6767 16.3633 25.6975 10.1324 30.5668C8.83201 34.3477 13.9251 36.4386 16.6342 37.0115C20.2914 37.0107 24.355 34.004 26.3868 34.004C34.5141 32.7143 35.3268 39.3029 32.4823 41.3079C30.2066 42.6828 20.1563 43.5994 15.4156 43.8858C7.9385 46.6356 7.69468 56.2023 8.50741 60.642C10.4579 71.2972 19.6146 73.1017 23.9492 72.6721C30.0441 70.9539 35.4627 68.5188 38.5782 69.2349Z" fill="#5F237B"/>
<path d="M54.7723 60.7349C52.839 57.827 50.7445 61.9465 49.939 64.3697C49.6167 66.5496 50.0732 68.3079 50.3417 68.9146C53.2418 71.8225 63.6335 73.7611 68.4669 74.3669C81.6781 73.2764 84.4439 63.3108 84.1753 58.4644C84.8198 50.4677 78.5364 46.651 75.3142 45.7423C61.7807 42.4709 61.0826 37.4124 62.4252 35.2921C63.7141 29.4763 71.0178 33.4747 74.5086 36.2008C80.3086 38.7452 82.2957 32.7171 82.5642 29.385C78.6975 23.2057 67.5271 23.1754 62.4252 23.9327C53.4029 25.7501 51.1473 34.08 51.1473 38.0178C50.8251 45.651 58.8001 50.5884 62.8279 52.1029C74.7503 57.1917 74.5086 61.1901 72.8975 62.5532C68.0641 68.4598 54.7723 61.1901 54.7723 60.7349Z" fill="#5F237B"/>
<path d="M85.5735 69.2685L85.2464 9.12068C90.7758 4.34463 95.1346 7.17079 96.6285 9.19232V35.3124C100.723 45.7605 106.455 27.4764 115.463 23.123C122.669 19.6404 125.29 23.7035 125.699 26.1704L113.416 40.1009C111.368 42.7129 110.14 44.8896 112.597 49.6785L126.108 71.0099C124.471 76.2339 112.187 71.4452 111.368 71.0099C110.713 70.6616 106.728 63.6092 104.817 60.1265C99.2489 51.7681 93.3029 62.5769 96.6285 67.5272C100.723 73.6219 93.7624 73.767 91.7152 73.6219C87.4569 73.9701 85.8465 70.8648 85.5735 69.2685Z" fill="#5F237B"/>
<path d="M129.777 27.7078C122.821 27.384 122.738 31.6204 123.566 33.7791C125.637 37.4217 133.365 57.1196 136.402 66.9684C137.395 72.473 142.612 73.5794 145.097 73.4445C152.715 73.4445 155.172 66.4288 155.448 62.9209C155.779 56.7687 158.898 54.1513 160.416 53.6117C164.06 52.6403 166.903 62.6511 167.869 67.7779C168.863 73.2826 176.012 73.8492 179.462 73.4445C184.762 73.4445 185.856 64.9463 187.329 61.7067C188.654 58.7925 195.057 40.7946 198.094 32.1599C200.412 27.3029 193.263 27.7076 189.399 28.5171C186.087 28.1933 181.946 40.7946 180.29 47.1357C176.978 55.5545 173.941 50.6435 172.837 47.1357L168.697 34.5884C166.627 26.4933 159.588 28.1156 156.69 28.5187C153.791 29.3282 152.549 35.263 151.721 39.0407C146.753 58.4687 142.336 51.1832 139.714 39.0407C139.3 35.398 136.733 28.0316 129.777 27.7078Z" fill="#5F237B"/>
<path d="M213.037 70.6294C209.95 76.25 199.809 73.2235 199.809 71.1664V40.6855V10.2045C200.514 7.4373 206.276 7.89858 209.068 8.47513C214.801 9.77222 214.36 15.1046 213.037 19.284C209.95 32.2546 220.974 26.634 229.352 26.2017C241.345 26.5475 244.931 36.1458 245.225 40.9016L245.666 69.437C245.225 75.49 232.879 76.3547 232.438 69.8694L232.879 46.0899C229.352 29.2281 213.919 37.0105 213.037 46.0899V70.6294Z" fill="#5F237B"/>
<path d="M261.212 68.9918L245.946 31.2416C245.286 29.6005 245.946 28.6428 246.359 28.369C248.009 27.5484 250.897 27.5508 253.373 27.959C258.815 28.9186 263.583 44.4555 265.75 49.2957C268.06 55.861 270.838 52.3048 271.939 49.7061L278.953 32.4739C279.778 30.4231 281.015 27.9589 281.841 27.959C283.914 28.0366 285.481 28.0065 289.267 27.959C292.568 27.6307 292.568 30.0106 292.155 31.2416L270.701 83.7636C264.1 95.2528 250.897 89.0979 250.484 89.0979C245.864 87.4565 246.909 83.49 248.009 81.712C249.329 79.0859 252.685 79.25 254.198 79.6603C264.547 79.6603 262.449 72.8215 261.212 68.9918Z" fill="#5F237B"/>
<path d="M301.458 14.8574L300.448 15.2191C297.328 16.3362 295.704 19.7708 296.822 22.8906L307.039 51.425L313.278 64.3167C314.4 66.6334 317.087 67.7321 319.51 66.8644C321.933 65.9968 323.312 63.442 322.708 60.9401L319.347 47.018L309.129 18.4835C308.012 15.3638 304.577 13.7404 301.458 14.8574Z" fill="#D0193E"/>
<path d="M360.323 26.0133C352.53 10.4415 335.685 11.9298 326.817 15.8623C325.575 16.4131 325.006 17.8086 325.354 19.1222L326.816 24.6449C327.225 26.9633 329.856 26.8736 331.514 26.5279C344.838 22.021 347.773 29.9728 347.575 34.5121C347.325 40.2452 337.249 46.8682 331.544 49.3036C327.524 51.0548 326.085 58.0364 325.752 62.7944C325.658 64.1398 326.572 65.3196 327.873 65.6752L331.864 66.7659C333.511 67.2161 335.178 66.1848 335.828 64.6056C338.638 57.7884 344.724 55.006 347.55 53.6777C362.382 46.7068 362.421 30.2066 360.323 26.0133Z" fill="#D0193E"/>
<path d="M315.143 69.4879L326.212 68.9455C332.325 68.646 337.523 73.3589 337.823 79.4722C338.123 85.5854 333.41 90.784 327.296 91.0836C321.183 91.3831 315.985 86.6702 315.685 80.5569L315.143 69.4879Z" fill="#5F237B"/>
<path d="M26.187 51.0419C13.9271 50.5616 18.8475 59.1872 18.8311 59.6868C23.339 69.0444 31.0909 62.5679 33.1342 56.8046C34.7689 52.194 29.1839 51.0417 26.187 51.0419Z" fill="#F8F1E7"/>
</svg>
