<svg width="143" height="143" viewBox="0 0 143 143" fill="none" xmlns="http://www.w3.org/2000/svg">
<path d="M17.0238 68.0952H27.2381V40.8571C27.2381 37.2451 28.673 33.7811 31.227 31.227C33.7811 28.673 37.2451 27.2381 40.8571 27.2381H68.0952V17.0238C68.0952 12.5088 69.8888 8.17874 73.0814 4.98616C76.274 1.79357 80.6041 0 85.119 0C89.634 0 93.9641 1.79357 97.1567 4.98616C100.349 8.17874 102.143 12.5088 102.143 17.0238V27.2381H129.381C132.993 27.2381 136.457 28.673 139.011 31.227C141.565 33.7811 143 37.2451 143 40.8571V66.7333H132.786C122.571 66.7333 114.4 74.9048 114.4 85.119C114.4 95.3333 122.571 103.505 132.786 103.505H143V129.381C143 132.993 141.565 136.457 139.011 139.011C136.457 141.565 132.993 143 129.381 143H103.505V132.786C103.505 122.571 95.3333 114.4 85.119 114.4C74.9048 114.4 66.7333 122.571 66.7333 132.786V143H40.8571C37.2451 143 33.7811 141.565 31.227 139.011C28.673 136.457 27.2381 132.993 27.2381 129.381V102.143H17.0238C12.5088 102.143 8.17874 100.349 4.98616 97.1567C1.79358 93.9641 0 89.634 0 85.119C0 80.604 1.79358 76.274 4.98616 73.0814C8.17874 69.8888 12.5088 68.0952 17.0238 68.0952Z" fill="#FF9348"/>
<path d="M76.9516 61.8345V90.8545H71.6516V73.0345C71.6516 72.6612 71.6582 72.2612 71.6716 71.8345C71.6982 71.4078 71.7382 70.9745 71.7916 70.5345L63.4916 86.2745C63.0382 87.1412 62.3382 87.5745 61.3916 87.5745H60.5516C60.0849 87.5745 59.6716 87.4678 59.3116 87.2545C58.9516 87.0278 58.6649 86.7012 58.4516 86.2745L50.1116 70.4745C50.1516 70.9412 50.1849 71.3945 50.2116 71.8345C50.2382 72.2612 50.2516 72.6612 50.2516 73.0345V90.8545H44.9516V61.8345H49.5116C49.7649 61.8345 49.9916 61.8412 50.1916 61.8545C50.3916 61.8678 50.5649 61.9078 50.7116 61.9745C50.8716 62.0278 51.0116 62.1212 51.1316 62.2545C51.2649 62.3745 51.3916 62.5478 51.5116 62.7745L59.6316 78.2545C59.8849 78.7212 60.1182 79.2012 60.3316 79.6945C60.5582 80.1878 60.7716 80.6945 60.9716 81.2145C61.1716 80.6812 61.3782 80.1612 61.5916 79.6545C61.8182 79.1478 62.0582 78.6612 62.3116 78.1945L70.3716 62.7745C70.4916 62.5478 70.6182 62.3745 70.7516 62.2545C70.8849 62.1212 71.0249 62.0278 71.1716 61.9745C71.3316 61.9078 71.5049 61.8678 71.6916 61.8545C71.8916 61.8412 72.1249 61.8345 72.3916 61.8345H76.9516ZM100.798 86.7945V90.8545H84.5185V86.7945H90.2785V70.9145C90.2785 70.5678 90.2851 70.2145 90.2985 69.8545C90.3118 69.4945 90.3318 69.1278 90.3585 68.7545L86.5585 71.9145C86.2918 72.1145 86.0318 72.2412 85.7785 72.2945C85.5251 72.3478 85.2851 72.3545 85.0585 72.3145C84.8318 72.2612 84.6318 72.1812 84.4585 72.0745C84.2851 71.9545 84.1518 71.8345 84.0585 71.7145L82.3185 69.3745L91.2385 61.8145H95.7785V86.7945H100.798Z" fill="#D0193E"/>
</svg>
