<svg width="122" height="122" viewBox="0 0 122 122" fill="none" xmlns="http://www.w3.org/2000/svg">
<path d="M61 2.5C93.3087 2.5 119.5 28.6913 119.5 61C119.5 93.3087 93.3087 119.5 61 119.5C28.6913 119.5 2.5 93.3087 2.5 61L2.5 2.5L61 2.5Z" fill="#D0193E" stroke="#D0193E" stroke-width="5"/>
<path d="M18.2965 82L26.1685 38.416H32.8245L44.2165 69.52L55.6725 38.416H62.2645L70.2005 82H62.5205L59.1925 61.712C58.7232 58.8533 58.3178 56.0373 57.9765 53.264C57.6352 50.448 57.4005 47.6107 57.2725 44.752H59.2565C58.4885 48.0373 57.7205 51.0027 56.9525 53.648C56.1845 56.2507 55.3098 58.9173 54.3285 61.648L47.0965 81.36H41.3365L34.1045 61.648C33.1232 58.8747 32.2485 56.1867 31.4805 53.584C30.7125 50.9813 29.9445 48.0373 29.1765 44.752H31.1605C31.0325 47.6107 30.7978 50.448 30.4565 53.264C30.1578 56.0373 29.7525 58.8533 29.2405 61.712L25.9125 82H18.2965ZM88.509 82.704C85.2663 82.704 82.493 82.1493 80.189 81.04C77.885 79.888 75.7517 78.1387 73.789 75.792L78.525 71.056C79.9757 72.592 81.4263 73.7227 82.877 74.448C84.3277 75.1733 85.949 75.536 87.741 75.536C90.2157 75.536 92.093 74.9387 93.373 73.744C94.653 72.5067 95.293 70.9707 95.293 69.136C95.293 67.344 94.845 65.9573 93.949 64.976C93.0957 63.952 91.9437 63.2267 90.493 62.8C89.0423 62.3307 87.421 62.096 85.629 62.096C85.117 62.096 84.5623 62.1173 83.965 62.16C83.4103 62.16 82.8983 62.2027 82.429 62.288V55.76C83.1543 55.8027 83.6663 55.8453 83.965 55.888C84.3063 55.888 84.7117 55.888 85.181 55.888C87.869 55.888 89.9383 55.376 91.389 54.352C92.8397 53.2853 93.565 51.856 93.565 50.064C93.565 48.4427 93.053 47.184 92.029 46.288C91.005 45.392 89.5757 44.944 87.741 44.944C86.077 44.944 84.5623 45.3067 83.197 46.032C81.8743 46.7573 80.573 47.8667 79.293 49.36L74.493 44.752C76.7117 42.2347 78.8877 40.4427 81.021 39.376C83.1543 38.3093 85.629 37.776 88.445 37.776C91.005 37.776 93.2237 38.2667 95.101 39.248C96.9783 40.1867 98.4077 41.5307 99.389 43.28C100.413 44.9867 100.925 46.992 100.925 49.296C100.925 52.7947 99.6237 55.6107 97.021 57.744C94.461 59.8773 90.9837 60.944 86.589 60.944V56.976C89.7037 56.976 92.477 57.4453 94.909 58.384C97.341 59.3227 99.261 60.7307 100.669 62.608C102.077 64.4853 102.781 66.832 102.781 69.648C102.781 71.9947 102.226 74.1707 101.117 76.176C100.008 78.1387 98.3863 79.7173 96.253 80.912C94.1197 82.1067 91.5383 82.704 88.509 82.704Z" fill="white"/>
</svg>
