<svg width="20" height="20" viewBox="0 0 20 20" fill="none" xmlns="http://www.w3.org/2000/svg">
<path d="M9.99999 5C10.221 5 10.433 5.0878 10.5892 5.24408C10.7455 5.40036 10.8333 5.61232 10.8333 5.83333V9.51833L12.5817 10.5283C12.7715 10.6396 12.9096 10.8215 12.9659 11.0342C13.0221 11.247 12.9919 11.4733 12.8819 11.6639C12.7719 11.8545 12.5909 11.9938 12.3785 12.0515C12.1662 12.1091 11.9396 12.0804 11.7483 11.9717L9.58332 10.7217C9.45664 10.6485 9.35145 10.5433 9.27831 10.4167C9.20517 10.29 9.16666 10.1463 9.16666 10V5.83333C9.16666 5.61232 9.25445 5.40036 9.41073 5.24408C9.56701 5.0878 9.77898 5 9.99999 5Z" fill="#D0193E"/>
<path d="M1.66666 10C1.66666 11.6482 2.1554 13.2594 3.07108 14.6298C3.98675 16.0002 5.28824 17.0683 6.81096 17.699C8.33368 18.3297 10.0092 18.4948 11.6257 18.1732C13.2423 17.8517 14.7271 17.058 15.8925 15.8926C17.058 14.7271 17.8517 13.2423 18.1732 11.6258C18.4947 10.0093 18.3297 8.33371 17.699 6.81099C17.0683 5.28827 16.0002 3.98679 14.6297 3.07111C13.2593 2.15543 11.6482 1.66669 9.99999 1.66669C8.90564 1.66669 7.82201 1.88224 6.81096 2.30102C5.79991 2.71981 4.88125 3.33364 4.10743 4.10746C2.54463 5.67027 1.66666 7.78988 1.66666 10ZM9.16666 5.83335C9.16666 5.61234 9.25445 5.40038 9.41073 5.2441C9.56702 5.08782 9.77898 5.00002 9.99999 5.00002C10.221 5.00002 10.433 5.08782 10.5892 5.2441C10.7455 5.40038 10.8333 5.61234 10.8333 5.83335V9.51835L12.5817 10.5284C12.7715 10.6396 12.9096 10.8215 12.9659 11.0343C13.0221 11.247 12.9919 11.4734 12.8819 11.6639C12.7719 11.8545 12.5909 11.9938 12.3785 12.0515C12.1662 12.1091 11.9396 12.0805 11.7483 11.9717L9.58332 10.7217C9.45664 10.6485 9.35145 10.5434 9.27831 10.4167C9.20517 10.29 9.16666 10.1463 9.16666 10V5.83335Z" fill="#FF9348"/>
</svg>
