<svg width="18" height="23" viewBox="0 0 18 23" fill="none" xmlns="http://www.w3.org/2000/svg">
<path d="M14.625 7.875H5.625V5.625C5.625 4.725 5.9625 3.9375 6.6375 3.2625C7.9875 1.9125 10.125 1.9125 11.3625 3.2625C11.8125 3.7125 12.0375 4.275 12.2625 4.8375C12.375 5.4 13.05 5.7375 13.6125 5.625C14.175 5.5125 14.625 4.8375 14.4 4.275C14.175 3.2625 13.6125 2.3625 12.9375 1.6875C11.925 0.5625 10.4625 0 9 0C5.85 0 3.375 2.475 3.375 5.625V7.875C1.4625 7.875 0 9.3375 0 11.25V19.125C0 21.0375 1.4625 22.5 3.375 22.5H14.625C16.5375 22.5 18 21.0375 18 19.125V11.25C18 9.3375 16.5375 7.875 14.625 7.875Z" fill="#FF9348"/>
</svg>
